<?xml version="1.0" standalone="no"?>
<!DOCTYPE svg PUBLIC "-//W3C//DTD SVG 20010904//EN"
 "http://www.w3.org/TR/2001/REC-SVG-20010904/DTD/svg10.dtd">
<svg version="1.0" xmlns="http://www.w3.org/2000/svg"
 width="684.000000pt" height="684.000000pt" viewBox="0 0 684.000000 684.000000"
 preserveAspectRatio="xMidYMid meet">
<metadata>
Created by potrace 1.11, written by Peter Selinger 2001-2013
</metadata>
<g transform="translate(0.000000,684.000000) scale(0.100000,-0.100000)"
fill="#000000" stroke="none">
<path d="M3248 6829 c-74 -11 -145 -41 -235 -101 -229 -153 -561 -477 -688
-672 -161 -246 -326 -719 -410 -1172 -35 -187 -42 -284 -23 -298 11 -8 256
-390 323 -504 6 -9 17 -28 26 -42 138 -214 350 -553 347 -555 -2 -2 -64 -7
-138 -10 -74 -3 -148 -8 -165 -9 -16 -2 -66 -6 -110 -11 -239 -22 -485 -75
-655 -142 -329 -129 -474 -256 -571 -498 -17 -44 -48 -114 -69 -155 -21 -41
-59 -124 -84 -185 -26 -60 -51 -119 -56 -130 -20 -43 -92 -232 -134 -348 -89
-248 -98 -272 -101 -287 -2 -8 -8 -28 -15 -45 -27 -71 -17 -176 28 -293 82
-214 386 -554 762 -855 89 -70 96 -79 98 -114 5 -91 13 -112 58 -156 30 -29
44 -50 44 -69 0 -62 47 -128 109 -154 23 -9 75 -14 160 -15 221 -1 221 -1 221
20 0 18 36 19 1410 19 1376 0 1409 0 1415 -19 7 -22 -3 -21 189 -20 168 1 197
9 249 74 24 28 31 51 37 104 15 127 28 148 152 238 60 44 117 87 126 95 9 8
40 33 67 55 28 22 52 43 55 46 3 3 37 33 75 66 148 128 302 291 412 438 124
166 180 288 189 412 5 71 3 87 -31 188 -60 180 -164 461 -222 600 -30 72 -57
140 -60 152 -3 13 -9 23 -14 23 -5 0 -9 5 -9 12 0 6 -11 34 -24 62 -54 114
-84 183 -96 221 -32 100 -118 234 -196 305 -56 50 -155 115 -232 151 -71 33
-237 95 -274 103 -46 10 -70 15 -86 20 -9 3 -34 7 -54 10 -21 3 -57 10 -80 15
-24 5 -63 12 -88 15 -25 3 -55 8 -67 10 -12 3 -54 7 -95 11 -40 3 -80 8 -88
10 -16 4 -185 18 -210 17 -37 -1 -42 7 -23 36 10 15 23 36 30 47 6 11 77 126
156 255 79 129 202 330 272 447 109 179 132 210 146 202 22 -11 26 1 23 71 -7
236 -159 891 -260 1128 -8 17 -20 47 -28 65 -102 240 -180 382 -307 554 -221
300 -509 497 -809 554 -77 14 -292 19 -372 8z"/>
</g>
</svg>
